<svg width="13" height="24" fill="none" xmlns="http://www.w3.org/2000/svg"><path d="M9.895 9.32 8.56 10.36a2 2 0 0 0-.77 1.578V23H12V11.938a2 2 0 0 0-.77-1.577L9.895 9.32Z" fill="#0094FF"/><path d="M9.895 1.111v.548m0 7.66L8.56 10.362a2 2 0 0 0-.77 1.577V23H12V11.938a2 2 0 0 0-.77-1.577L9.895 9.32Zm0 0V4.943m0-3.283H7.789v3.283h2.106m0-3.283v3.283M2.632 23 1.446 12.056 3.5 7l-.496-1.844M2.105 1l.115.659m0 0L.5 2.5l.5 3 2.004-.344M2.22 1.659l.784 3.497" stroke="#0069BD" stroke-linecap="round" stroke-linejoin="round"/></svg>