<svg width="14" height="14" fill="none" xmlns="http://www.w3.org/2000/svg"><path clip-rule="evenodd" d="M.993 2.348C1.204 2 2.366.73 3.195.768c.248.02.467.17.645.344.409.399 1.58 1.909 1.646 2.226.161.78-.767 1.229-.483 2.014.724 1.772 1.972 3.02 3.746 3.744.784.284 1.234-.644 2.013-.482.317.067 1.827 1.237 2.226 1.645.174.178.324.397.345.645.03.873-1.318 2.052-1.581 2.202-.62.444-1.43.436-2.417-.022-2.753-1.146-7.152-5.463-8.319-8.32C.57 3.784.539 2.97.993 2.348Z" stroke="#111" stroke-linecap="round" stroke-linejoin="round"/></svg>