<svg width="19" height="22" fill="none" xmlns="http://www.w3.org/2000/svg"><path d="M9.577 12.429V9.095C8.42 6.238 5.952 1 4.62 1 3.052 1 2.7 3.487 3.628 7.19c.837 3.334-2.304 2.773-2.974 5.715-.49 2.152.233 3.224 1.534 4.435.786.734 2.03.666 2.775-.11l4.614-4.801Z" fill="#0094FF"/><path d="M13.047 6.714H11.56v2.381m1.487-2.38V4.332h3.966v2.381m-3.966 0h3.966m0 0H18.5v9.524L17.013 21h-3.966l-1.487-4.762v-3.81m0-3.333H9.577m1.983 0v3.334M9.577 9.095v3.334m0-3.334C8.42 6.238 5.952 1 4.62 1 3.052 1 2.7 3.487 3.628 7.19c.837 3.334-2.304 2.773-2.974 5.715-.49 2.152.233 3.224 1.534 4.435.786.734 2.03.666 2.775-.11l4.614-4.801m0 0h1.983" stroke="#0069BD" stroke-linecap="round" stroke-linejoin="round"/></svg>