<svg width="25" height="24" fill="none" xmlns="http://www.w3.org/2000/svg"><path d="m9.5 1.5 3 2.5L15 1" stroke="#0069BD" stroke-linecap="round" stroke-linejoin="round"/><path d="M21.488 12.952a8.5 8.5 0 0 1-16.976-.004 2.5 2.5 0 1 1 .987-4.449A8.499 8.499 0 0 1 13 4a8.495 8.495 0 0 1 7.278 4.106 2.5 2.5 0 1 1 1.21 4.846Z" stroke="#0069BD"/><circle cx="9.5" cy="11" r="1" fill="#0069BD"/><circle cx="15.5" cy="11" r="1" fill="#0069BD"/><path d="M15.864 16A4.501 4.501 0 0 1 9.5 16" stroke="#0069BD" stroke-linecap="round" stroke-linejoin="round"/></svg>