<svg width="25" height="24" fill="none" xmlns="http://www.w3.org/2000/svg"><path d="M10.5 5.298c-3.357-3.439-9.175.5-7.791 5.46C3.529 13.7 5.579 20 7.219 20 8.86 20 10 14.5 10.5 14.12" stroke="#0069BD" stroke-linecap="round" stroke-linejoin="round"/><path d="M14.868 4.969v11.875m0 4.156v-4.156m-1.782 3.562c-1.78-2.375.99-3.166 1.782-3.562m0 0c.38-.19 4.75-1.782 2.375-3.563m-.594 7.125c1.003-.593 1.187-1.781 0-2.375" stroke="#0094FF" stroke-linecap="round" stroke-linejoin="round"/><circle cx="14.868" cy="3.781" r="1.281" fill="#0094FF" stroke="#0094FF"/><path d="M21.979 7.055C20.749 6.644 19.98 5 18.445 5c-1.24.074-2.384 2-3.468 2v3.5c.692.164 1.93.5 2.7.5a5.843 5.843 0 0 1-.462-2.301 6.511 6.511 0 0 0 1.69 2.137 4.858 4.858 0 0 0 1.537-.494c-.46-.657-.845-1.397-.999-2.137.538.576 1.23 1.151 1.998 1.48.845-.658 1.383-1.48 1.537-2.466-.308-.082-.692-.082-1-.164Z" fill="#0094FF"/></svg>