<svg width="20" height="21" fill="none" xmlns="http://www.w3.org/2000/svg"><path d="M10 20.1c5.523 0 10-4.477 10-10S15.523.1 10 .1 0 4.577 0 10.1s4.477 10 10 10Z" fill="#34AADF"/><path d="M4.287 9.88s4.953-2.106 6.671-2.849c.659-.296 2.892-1.246 2.892-1.246s1.03-.416.945.593c-.029.416-.258 1.87-.487 3.444l-.716 4.66s-.057.682-.544.801c-.486.119-1.288-.415-1.431-.534-.115-.09-2.148-1.425-2.892-2.078-.2-.178-.43-.534.028-.95 1.031-.98 2.262-2.196 3.007-2.968.344-.356.687-1.187-.745-.178-2.032 1.454-4.037 2.82-4.037 2.82s-.458.296-1.317.03A58.028 58.028 0 0 1 3.8 10.8s-.687-.445.487-.92Z" fill="#fff"/></svg>