<svg width="22" height="22" fill="none" xmlns="http://www.w3.org/2000/svg"><path d="M12.5 9A3.5 3.5 0 0 0 9 12.5h7A3.5 3.5 0 0 0 12.5 9Z" fill="#0094FF"/><path d="M3.5 1v1m0 19V6.5m0-4.5H6M3.5 2H1m2.5 0v1.5m0 0H6m-2.5 0H1m2.5 0V5m0 0H6M3.5 5H1m2.5 0v1.5m0 0H6m-2.5 0H1m17 6v5a3 3 0 0 1-3 3h-5a3 3 0 0 1-3-3v-5h2m9 0V1h.5a3 3 0 0 1 3 3v5.5a3 3 0 0 1-3 3H18Zm0 0h-2m-7 0v0A3.5 3.5 0 0 1 12.5 9v0a3.5 3.5 0 0 1 3.5 3.5v0m-7 0h7m0 0v-1.606a4.275 4.275 0 0 0-2.687-3.969v0a4.275 4.275 0 0 0-4.258.631L8.5 8" stroke="#0069BD" stroke-linecap="round" stroke-linejoin="round"/></svg>