<svg width="20" height="21" fill="none" xmlns="http://www.w3.org/2000/svg"><path d="m0 20.1 1.436-5.33A9.844 9.844 0 0 1 .4 7.943 9.869 9.869 0 0 1 4.102 2.11a9.93 9.93 0 0 1 12.951.836 9.85 9.85 0 0 1 1.006 12.895 9.908 9.908 0 0 1-5.804 3.766 9.935 9.935 0 0 1-6.861-.945L0 20.1Zm5.654-3.432.334.198a8.028 8.028 0 0 0 9.696-1.176 7.957 7.957 0 0 0 1.339-9.643 7.998 7.998 0 0 0-3.865-3.407 8.031 8.031 0 0 0-5.147-.35A8.008 8.008 0 0 0 3.72 5.143a7.962 7.962 0 0 0-1.655 4.87 7.87 7.87 0 0 0 1.17 4.136l.21.344-.804 2.975 3.014-.8Z" fill="#00D95F"/><path fill-rule="evenodd" clip-rule="evenodd" d="M13.75 11.382a1.653 1.653 0 0 0-1.413-.321c-.368.152-.605.727-.843 1.014a.35.35 0 0 1-.452.102 6.4 6.4 0 0 1-3.2-2.733.382.382 0 0 1 .05-.53c.265-.261.46-.585.566-.941a2.046 2.046 0 0 0-.26-1.127 2.635 2.635 0 0 0-.82-1.234 1.134 1.134 0 0 0-1.216.186 2.491 2.491 0 0 0-.865 1.972c.001.209.028.417.08.62.13.487.333.952.599 1.38.192.329.401.647.627.953a9.627 9.627 0 0 0 2.72 2.513 8.209 8.209 0 0 0 1.696.806c.618.279 1.3.386 1.973.31a2.373 2.373 0 0 0 1.787-1.325c.098-.21.127-.447.085-.676-.102-.467-.73-.744-1.114-.969Z" fill="#00D95F"/></svg>