<svg width="16" height="14" fill="none" xmlns="http://www.w3.org/2000/svg"><path d="M14.958 4.707c.112 0 .22.058.29.157a.47.47 0 0 1 .078.353l-.212 1.158c-.035.197-.19.338-.368.338h-.45c.432.544.639 1.239.636 1.932-.003.768-.261 1.537-.801 2.096v1.589c0 .35-.253.637-.563.637H12.25c-.31 0-.563-.286-.563-.637v-.651H4.312v.65c0 .352-.252.638-.563.638H2.432c-.311 0-.563-.286-.563-.637v-1.62l-.017-.015c-.509-.53-.787-1.279-.784-2.107.002-.671.2-1.341.608-1.874h-.422c-.178 0-.332-.14-.368-.338L.674 5.218a.464.464 0 0 1 .077-.354.36.36 0 0 1 .291-.157H2.47c.355-1.048.812-2.079 1.334-2.467 1.804-1.342 6.59-1.342 8.395 0 .521.388.98 1.417 1.332 2.467h1.428Z" stroke="#111" stroke-linecap="round" stroke-linejoin="round"/><path d="M11.666 5.633c-.233-.665-.537-1.316-.883-1.562-1.197-.85-4.37-.85-5.566 0-.346.246-.65.898-.884 1.562m0 0h7.333" stroke="#111" stroke-linecap="round" stroke-linejoin="round"/><circle cx="12.333" cy="8.767" r="1" fill="#111"/><circle cx="3.667" cy="8.767" fill="#111" r="1"/></svg>