<svg width="10" height="24" fill="none" xmlns="http://www.w3.org/2000/svg"><path d="M5.403 8.674H2.885l-.923 4.605V23H8.5c0-.853-.084-2.837-.462-4.093-.461-1.535-1.384-3.07-1.384-4.605 0-.915.615-3.41.923-4.604L5.403 8.674Z" fill="#0094FF"/><path d="m1.5 1 2.308 1.535 1.595 6.14m0 0H2.885l-.923 4.604V23H8.5c0-.853-.084-2.837-.462-4.093-.461-1.535-1.384-3.07-1.384-4.605 0-.915.615-3.41.923-4.604L5.403 8.674Z" stroke="#0069BD" stroke-width="1.5" stroke-linecap="round" stroke-linejoin="round"/></svg>