<svg width="13" height="24" viewBox="0 0 13 24" fill="none" xmlns="http://www.w3.org/2000/svg">
<path d="M9.89474 9.31961L8.55962 10.3607C8.07361 10.7397 7.78947 11.3216 7.78947 11.9379V23H12V11.9379C12 11.3216 11.7159 10.7397 11.2298 10.3607L9.89474 9.31961Z" fill="#0094FF"/>
<path d="M9.89474 1.11138V1.65859M9.89474 9.31961L8.55962 10.3607C8.07361 10.7397 7.78947 11.3216 7.78947 11.9379V23H12V11.9379C12 11.3216 11.7159 10.7397 11.2298 10.3607L9.89474 9.31961ZM9.89474 9.31961V4.94189M9.89474 1.65859H7.78947V4.94189H9.89474M9.89474 1.65859V4.94189M2.63159 23L1.44648 12.0557L3.5 7L3.00389 5.15558M2.10527 1L2.22044 1.65861M2.22044 1.65861L0.5 2.5L1 5.5L3.00389 5.15558M2.22044 1.65861L3.00389 5.15558" stroke="#0069BD" stroke-linecap="round" stroke-linejoin="round"/>
</svg>
