<svg width="14" height="14" viewBox="0 0 14 14" fill="none" xmlns="http://www.w3.org/2000/svg">
<path fill-rule="evenodd" clip-rule="evenodd" d="M0.993392 2.34829C1.20427 1.99912 2.36617 0.729111 3.19531 0.767451C3.44317 0.787991 3.66226 0.937927 3.84028 1.11183C4.24903 1.51097 5.41915 3.02061 5.48556 3.33829C5.64714 4.11741 4.71872 4.56653 5.00286 5.35182C5.72725 7.12436 6.97542 8.37246 8.74873 9.09613C9.53337 9.38026 9.98252 8.45188 10.7617 8.61414C11.0787 8.68055 12.5891 9.85061 12.9883 10.2593C13.1615 10.4367 13.3121 10.6564 13.3326 10.9043C13.3635 11.7772 12.0146 12.9555 11.7517 13.1061C11.1314 13.5497 10.3221 13.5422 9.3355 13.0835C6.58241 11.9381 2.18268 7.62141 1.01599 4.7644C0.569576 3.7833 0.538766 2.96858 0.993392 2.34829Z" stroke="#111111" stroke-linecap="round" stroke-linejoin="round"/>
</svg>
