<svg width="16" height="14" viewBox="0 0 16 14" fill="none" xmlns="http://www.w3.org/2000/svg">
<path d="M14.9579 4.70723C15.0701 4.70723 15.1772 4.76496 15.2489 4.86387C15.3202 4.9632 15.3477 5.09267 15.3259 5.21705L15.1141 6.37464C15.0788 6.57246 14.9248 6.71339 14.7464 6.71339H14.2954C14.7277 7.25674 14.9346 7.95164 14.9323 8.64526C14.9289 9.41317 14.6709 10.1824 14.1309 10.7414V12.3299C14.1309 12.6809 13.8778 12.9666 13.5676 12.9666H12.251C11.9401 12.9666 11.6877 12.6809 11.6877 12.3299V11.6787H4.31187V12.3299C4.31187 12.6809 4.05951 12.9666 3.74857 12.9666H2.43195C2.12101 12.9666 1.86865 12.6809 1.86865 12.3299V10.7096C1.86339 10.7041 1.85776 10.7002 1.85213 10.6947C1.34328 10.1649 1.06501 9.41614 1.06764 8.58753C1.07027 7.91683 1.26817 7.24655 1.67638 6.71424H1.25353C1.0759 6.71424 0.921931 6.57331 0.88588 6.37592L0.674455 5.2179C0.651172 5.09267 0.679712 4.96235 0.751063 4.86387C0.822039 4.76496 0.92869 4.70723 1.0421 4.70723H2.4695C2.82363 3.65873 3.28065 2.62848 3.80265 2.23965C5.60708 0.89782 10.3933 0.89782 12.1977 2.23965C12.7193 2.62806 13.1782 3.65703 13.5305 4.70723H14.9579Z" stroke="#111111" stroke-linecap="round" stroke-linejoin="round"/>
<path d="M11.6663 5.63323C11.4328 4.96815 11.1286 4.31652 10.7827 4.07055C9.5864 3.22079 6.4132 3.22079 5.21687 4.07055C4.8708 4.31679 4.56779 4.96923 4.33301 5.63323" stroke="#111111" stroke-linecap="round" stroke-linejoin="round"/>
<path d="M4.33301 5.6333L11.6663 5.6333" stroke="#111111" stroke-linecap="round" stroke-linejoin="round"/>
<circle cx="12.333" cy="8.7666" r="1" fill="#111111"/>
<ellipse cx="3.6665" cy="8.7666" rx="1" ry="1" fill="#111111"/>
</svg>
