<svg width="25" height="24" viewBox="0 0 25 24" fill="none" xmlns="http://www.w3.org/2000/svg">
<path d="M5.5 14V20L12.5 22M5.5 14L12.5 16M5.5 14L14.5 10M5.5 14L1.5 9L11 5L14.5 10M12.5 22V16M12.5 22L21 17.5V12M12.5 16L21 12M14.5 10L21 12" stroke="#0069BD" stroke-linecap="round" stroke-linejoin="round"/>
<path d="M19 2L19.4666 3.26097C19.7704 4.08212 20.4179 4.72954 21.239 5.03339L22.5 5.5L21.239 5.96661C20.4179 6.27046 19.7704 6.91788 19.4666 7.73902L19 9L18.5334 7.73909C18.2296 6.9179 17.5821 6.27045 16.7609 5.96659L15.5 5.5L16.7609 5.03341C17.5821 4.72955 18.2296 4.08209 18.5334 3.26091L19 2Z" stroke="#0094FF" stroke-linecap="round" stroke-linejoin="round"/>
</svg>
