<svg width="19" height="22" viewBox="0 0 19 22" fill="none" xmlns="http://www.w3.org/2000/svg">
<path d="M9.5771 12.4286V9.09524C8.42043 6.2381 5.9522 1 4.61994 1C3.05234 1 2.69907 3.48705 3.6285 7.19048C4.46505 10.5238 1.32414 9.96263 0.654204 12.9048C0.164091 15.0572 0.887189 16.1286 2.18769 17.3405C2.97433 18.0736 4.21801 18.0056 4.96305 17.2302L9.5771 12.4286Z" fill="#0094FF"/>
<path d="M13.0471 6.71429H11.56V9.09524M13.0471 6.71429C13.0471 5.92064 13.0471 4.33333 13.0471 4.33333H17.0129V6.71429M13.0471 6.71429H17.0129M17.0129 6.71429H18.5V16.2381L17.0129 21H15.03H13.0471L11.56 16.2381V12.4286M11.56 9.09524H9.5771M11.56 9.09524V12.4286M9.5771 9.09524V12.4286M9.5771 9.09524C8.42043 6.2381 5.9522 1 4.61994 1C3.05234 1 2.69907 3.48705 3.6285 7.19048C4.46505 10.5238 1.32414 9.96263 0.654204 12.9048C0.164091 15.0572 0.887189 16.1286 2.18769 17.3405C2.97433 18.0736 4.21801 18.0056 4.96305 17.2302L9.5771 12.4286M9.5771 12.4286H11.56" stroke="#0069BD" stroke-linecap="round" stroke-linejoin="round"/>
</svg>
