<svg width="10" height="24" viewBox="0 0 10 24" fill="none" xmlns="http://www.w3.org/2000/svg">
<path d="M5.40323 8.67442H2.88462L1.96154 13.2791V23H8.5C8.5 22.1473 8.41621 20.1632 8.03846 18.907C7.57692 17.3721 6.65385 15.8372 6.65385 14.3023C6.65385 13.3871 7.26923 10.8915 7.57692 9.69767L5.40323 8.67442Z" fill="#0094FF"/>
<path d="M1.5 1L3.80769 2.53488L5.40323 8.67442M5.40323 8.67442H2.88462L1.96154 13.2791V23H8.5C8.5 22.1473 8.41621 20.1632 8.03846 18.907C7.57692 17.3721 6.65385 15.8372 6.65385 14.3023C6.65385 13.3871 7.26923 10.8915 7.57692 9.69767L5.40323 8.67442Z" stroke="#0069BD" stroke-width="1.5" stroke-linecap="round" stroke-linejoin="round"/>
</svg>
