<svg width="25" height="24" viewBox="0 0 25 24" fill="none" xmlns="http://www.w3.org/2000/svg">
<path d="M9.5 1.5L12.5 4L15 1" stroke="#0069BD" stroke-linecap="round" stroke-linejoin="round"/>
<path d="M21.4882 12.9524C21.253 17.4365 17.5427 21 13 21C8.45572 21 4.74434 17.434 4.51158 12.9476C4.34644 12.982 4.17533 13 4 13C2.61929 13 1.5 11.8807 1.5 10.5C1.5 9.11929 2.61929 8 4 8C4.56223 8 5.0811 8.18559 5.49871 8.49885C6.92974 5.82159 9.75214 4 13 4C16.0864 4 18.7885 5.64495 20.2776 8.10595C20.5063 8.03704 20.7488 8 21 8C22.3807 8 23.5 9.11929 23.5 10.5C23.5 11.7137 22.6352 12.7253 21.4882 12.9524Z" stroke="#0069BD"/>
<circle cx="9.5" cy="11" r="1" fill="#0069BD"/>
<circle cx="15.5" cy="11" r="1" fill="#0069BD"/>
<path d="M15.864 16C15.4461 16.4179 14.95 16.7493 14.4041 16.9755C13.8581 17.2016 13.2729 17.318 12.682 17.318C12.091 17.318 11.5059 17.2016 10.9599 16.9755C10.4139 16.7493 9.91786 16.4179 9.5 16" stroke="#0069BD" stroke-linecap="round" stroke-linejoin="round"/>
</svg>
