<svg width="17" height="23" viewBox="0 0 17 23" fill="none" xmlns="http://www.w3.org/2000/svg">
<path d="M13.5 22H16.5V5C16.5 4.17157 15.8284 3.5 15 3.5V3.5C14.1716 3.5 13.5 4.17157 13.5 5V5.5V10V22Z" fill="#0094FF"/>
<path d="M4 3V9V22H7V3C7 1.89543 6.10457 1 5 1H4V3Z" fill="#0094FF"/>
<path d="M4 3L0.5 2V4M4 3V9M4 3V1M4 9L0.5 8V4M4 9V22M4 1H5C6.10457 1 7 1.89543 7 3V22H4M4 1V22M13.5 10V22H16.5V5C16.5 4.17157 15.8284 3.5 15 3.5V3.5C14.1716 3.5 13.5 4.17157 13.5 5V5.5M13.5 10H10.5V5.5H13.5M13.5 10V5.5M0.5 4L2.5 4.5" stroke="#0069BD" stroke-linecap="round" stroke-linejoin="round"/>
</svg>
