<svg width="25" height="24" viewBox="0 0 25 24" fill="none" xmlns="http://www.w3.org/2000/svg">
<path d="M10.5 5.29767C7.14327 1.85908 1.32549 5.79877 2.70882 10.7585C3.52894 13.699 5.57926 20 7.21951 20C8.85975 20 10 14.5 10.5 14.1191" stroke="#0069BD" stroke-linecap="round" stroke-linejoin="round"/>
<path d="M14.8676 4.96875V16.8438M14.8676 21V16.8438M13.0864 20.4062C11.3051 18.0312 14.076 17.2396 14.8676 16.8438M14.8676 16.8438C15.2475 16.6538 19.6176 15.0625 17.2426 13.2813M16.6489 20.4062C17.652 19.8125 17.8364 18.625 16.6489 18.0312" stroke="#0094FF" stroke-linecap="round" stroke-linejoin="round"/>
<circle cx="14.8677" cy="3.78125" r="1.28125" fill="#0094FF" stroke="#0094FF"/>
<path d="M21.9787 7.05479C20.7494 6.64384 19.9811 5 18.4445 5C17.2053 5.07365 16.061 7 14.9775 7V10.5C15.669 10.6644 16.9079 11 17.6762 11C17.3689 10.2603 17.2152 9.52055 17.2152 8.69863C17.6762 9.60274 18.214 10.2603 18.9055 10.8356C19.4433 10.7534 19.9811 10.589 20.4421 10.3425C19.9811 9.68493 19.597 8.94521 19.4433 8.20548C19.9811 8.78082 20.6726 9.35616 21.4409 9.68493C22.2861 9.0274 22.8239 8.20548 22.9775 7.21918C22.6702 7.13699 22.2861 7.13699 21.9787 7.05479Z" fill="#0094FF"/>
</svg>
