<svg width="18" height="22" viewBox="0 0 18 22" fill="none" xmlns="http://www.w3.org/2000/svg">
<circle cx="9.07881" cy="6.27803" r="4.77803" stroke="white" stroke-width="1.5" stroke-linecap="round" stroke-linejoin="round"/>
<path fill-rule="evenodd" clip-rule="evenodd" d="M1.50002 17.7014C1.49873 17.3655 1.57385 17.0338 1.7197 16.7312C2.17736 15.8158 3.46798 15.3307 4.53892 15.111C5.31128 14.9462 6.09431 14.8361 6.88217 14.7815C8.34084 14.6534 9.80793 14.6534 11.2666 14.7815C12.0544 14.8367 12.8374 14.9468 13.6099 15.111C14.6808 15.3307 15.9714 15.7701 16.4291 16.7312C16.7224 17.348 16.7224 18.064 16.4291 18.6808C15.9714 19.6419 14.6808 20.0813 13.6099 20.2918C12.8384 20.4635 12.0551 20.5767 11.2666 20.6305C10.0794 20.7311 8.88659 20.7495 7.69681 20.6854C7.42221 20.6854 7.15677 20.6854 6.88217 20.6305C6.09663 20.5773 5.31632 20.4641 4.54807 20.2918C3.46798 20.0813 2.18652 19.6419 1.7197 18.6808C1.5746 18.3747 1.49955 18.0402 1.50002 17.7014Z" stroke="white" stroke-width="1.5" stroke-linecap="round" stroke-linejoin="round"/>
</svg>
