<svg width="20" height="21" viewBox="0 0 20 21" fill="none" xmlns="http://www.w3.org/2000/svg">
<path d="M10 20.1C15.5228 20.1 20 15.6228 20 10.1C20 4.57714 15.5228 0.0999756 10 0.0999756C4.47716 0.0999756 0 4.57714 0 10.1C0 15.6228 4.47716 20.1 10 20.1Z" fill="#34AADF"/>
<path d="M4.28675 9.8809C4.28675 9.8809 9.24024 7.77352 10.9582 7.03146C11.6168 6.73466 13.8501 5.78482 13.8501 5.78482C13.8501 5.78482 14.8809 5.3693 14.795 6.37846C14.7664 6.79402 14.5373 8.2484 14.3083 9.82154C13.9646 12.0477 13.5924 14.4816 13.5924 14.4816C13.5924 14.4816 13.5352 15.1643 13.0484 15.283C12.5617 15.4017 11.7599 14.8675 11.6168 14.7487C11.5022 14.6597 9.46929 13.324 8.72484 12.671C8.5244 12.4929 8.29535 12.1367 8.75345 11.7212C9.78426 10.7417 11.0155 9.52474 11.7599 8.75302C12.1035 8.39682 12.4471 7.56574 11.0155 8.5749C8.98254 10.0293 6.97824 11.3947 6.97824 11.3947C6.97824 11.3947 6.5201 11.6915 5.66113 11.4243C4.80211 11.1572 3.79996 10.801 3.79996 10.801C3.79996 10.801 3.11281 10.3558 4.28675 9.8809Z" fill="white"/>
</svg>
