<svg width="22" height="22" viewBox="0 0 22 22" fill="none" xmlns="http://www.w3.org/2000/svg">
<path d="M12.5 9C10.567 9 9 10.567 9 12.5V12.5H16V12.5C16 10.567 14.433 9 12.5 9V9Z" fill="#0094FF"/>
<path d="M3.5 1V2M3.5 21V6.5M3.5 2H6M3.5 2H1M3.5 2V3.5M3.5 3.5H6M3.5 3.5H1M3.5 3.5V5M3.5 5H6M3.5 5H1M3.5 5V6.5M3.5 6.5H6M3.5 6.5H1M18 12.5V17.5C18 19.1569 16.6569 20.5 15 20.5H10C8.34315 20.5 7 19.1569 7 17.5V12.5H9M18 12.5V1H18.5C20.1569 1 21.5 2.34315 21.5 4V9.5C21.5 11.1569 20.1569 12.5 18.5 12.5H18ZM18 12.5H16M9 12.5V12.5C9 10.567 10.567 9 12.5 9V9C14.433 9 16 10.567 16 12.5V12.5M9 12.5H16M16 12.5V10.8941C16 9.14618 14.9358 7.57432 13.3129 6.92514V6.92514C11.8834 6.35338 10.257 6.5944 9.05484 7.55613L8.5 8" stroke="#0069BD" stroke-linecap="round" stroke-linejoin="round"/>
</svg>
