<svg width="20" height="21" viewBox="0 0 20 21" fill="none" xmlns="http://www.w3.org/2000/svg">
<path d="M0 20.1L1.43611 14.7692C0.277924 12.6926 -0.0900445 10.2694 0.399731 7.94421C0.889507 5.61904 2.20417 3.54788 4.10249 2.11079C6.0008 0.673709 8.35543 -0.0329035 10.7343 0.12062C13.1132 0.274144 15.3567 1.27751 17.0532 2.94659C18.7497 4.61567 19.7854 6.83852 19.9702 9.20723C20.155 11.5759 19.4765 13.9316 18.0593 15.842C16.6421 17.7524 14.5811 19.0894 12.2547 19.6075C9.92822 20.1257 7.4923 19.7904 5.39391 18.663L0 20.1ZM5.65399 16.6682L5.98758 16.8655C7.50749 17.7633 9.28272 18.1349 11.0366 17.9222C12.7905 17.7096 14.4246 16.9246 15.6842 15.6897C16.9437 14.4548 17.7581 12.8394 18.0002 11.0951C18.2424 9.35078 17.8988 7.57562 17.0231 6.04625C16.1473 4.51688 14.7885 3.31919 13.1584 2.63984C11.5284 1.96049 9.7186 1.83764 8.01116 2.29042C6.30373 2.74321 4.79454 3.74619 3.71877 5.14309C2.643 6.53998 2.06108 8.2523 2.06371 10.0132C2.06228 11.4733 2.46744 12.9052 3.23408 14.1494L3.44328 14.4931L2.64041 17.4684L5.65399 16.6682Z" fill="#00D95F"/>
<path fill-rule="evenodd" clip-rule="evenodd" d="M13.7501 11.382C13.5546 11.2248 13.3256 11.1142 13.0806 11.0585C12.8357 11.0029 12.5812 11.0037 12.3366 11.0608C11.9691 11.213 11.7316 11.7878 11.4942 12.0752C11.4441 12.144 11.3705 12.1924 11.2872 12.211C11.204 12.2297 11.1167 12.2175 11.0419 12.1766C9.6964 11.6514 8.56861 10.6882 7.8417 9.44358C7.7797 9.36591 7.75036 9.2673 7.75985 9.1685C7.76934 9.0697 7.81692 8.97842 7.89259 8.91389C8.15744 8.65257 8.3519 8.32891 8.45799 7.97283C8.48154 7.58008 8.39126 7.18886 8.1979 6.84582C8.04842 6.3649 7.76394 5.93668 7.37807 5.61175C7.17905 5.52254 6.95838 5.49262 6.74269 5.52562C6.52699 5.55862 6.32548 5.65311 6.16246 5.7977C5.87947 6.04105 5.65484 6.34456 5.50513 6.68589C5.35541 7.02722 5.28443 7.39768 5.2974 7.76997C5.29828 7.97904 5.32486 8.18721 5.37656 8.38983C5.50785 8.87664 5.70975 9.34175 5.97588 9.77042C6.16789 10.0988 6.37739 10.4167 6.60348 10.7227C7.33824 11.728 8.26185 12.5816 9.32305 13.236C9.85556 13.5685 10.4247 13.8389 11.0192 14.0418C11.6368 14.3208 12.3187 14.4279 12.9925 14.3517C13.3764 14.2938 13.7401 14.1427 14.0516 13.9118C14.3632 13.6809 14.613 13.3772 14.7791 13.0275C14.8768 12.8162 14.9064 12.58 14.864 12.3513C14.7622 11.8836 14.1346 11.6074 13.7501 11.382Z" fill="#00D95F"/>
</svg>
