<svg width="25" height="24" viewBox="0 0 25 24" fill="none" xmlns="http://www.w3.org/2000/svg">
<path d="M12.4997 3.99999C8.40679 -0.0929335 1.313 4.59644 2.99973 10.5C3.99973 14 6.49976 21.5 8.49976 21.5C10.4998 21.5 11.4998 14.5 12.4998 14.5C13.4998 14.5 14.9186 21.5 16.4998 21.5C17.9998 21.5 19.4998 17.5 19.9998 15" stroke="#0069BD" stroke-linecap="round" stroke-linejoin="round"/>
<path d="M18.4999 2L19.3717 4.35583C19.6756 5.17698 20.323 5.8244 21.1441 6.12825L23.5 6.99999L21.1441 7.87174C20.323 8.1756 19.6756 8.82302 19.3717 9.64416L18.4999 12L17.6283 9.64422C17.3244 8.82304 16.677 8.17559 15.8558 7.87173L13.5 6.99999L15.8558 6.12827C16.677 5.82441 17.3244 5.17696 17.6283 4.35577L18.4999 2Z" stroke="#0094FF" stroke-linecap="round" stroke-linejoin="round"/>
</svg>
